<?xml version="1.0" encoding="UTF-8"?>
<svg width="24px" height="24px" viewBox="0 0 24 24" version="1.1" xmlns="http://www.w3.org/2000/svg" xmlns:xlink="http://www.w3.org/1999/xlink">
    <!-- Generator: Sketch 61 (89581) - https://sketch.com -->
    <title>icon / header / page manipulation / page transition / page by page / fill</title>
    <desc>Created with Sketch.</desc>
    <defs>
        <path d="M20.3,9.5 L20.3,20.3 C20.3,21.2 19.6,22 18.6,22 L11.1,22 L11.1,20.3 L18.6,20.3 L18.6,9.5 L20.3,9.5 Z M15.3,18.7 L5.3,18.7 C4.4,18.7 3.6,18 3.6,17 L3.6,3.7 C3.7,2.7 4.4,2 5.3,2 L12,2 L17,7 L17,17 C17,17.9 16.3,18.7 15.3,18.7 Z M12,7.8 L15.3,7.8 L11.1,3.6 L11.1,7.8 C11.2,7.8 11.5,7.8 12,7.8 Z" id="path-1"></path>
    </defs>
    <g id="icon-/-header-/-page-manipulation-/-page-transition-/-page-by-page-/-fill" stroke="none" stroke-width="1" fill="none" fill-rule="evenodd">
        <g>
            <mask id="mask-2" fill="white">
                <use xlink:href="#path-1"></use>
            </mask>
            <use id="Shape" fill="#ABB0C4" xlink:href="#path-1"></use>
        </g>
    </g>
</svg>